<svg xmlns="http://www.w3.org/2000/svg" version="1.1" xmlns:xlink="http://www.w3.org/1999/xlink" xmlns:svgjs="http://svgjs.dev/svgjs" width="1000" height="1000" viewBox="0 0 1000 1000"><g transform="matrix(1,0,0,1,-0.14221556886212738,-0.14221556886229791)"><svg viewBox="0 0 334 334" data-background-color="#ffffff" preserveAspectRatio="xMidYMid meet" height="1000" width="1000" xmlns="http://www.w3.org/2000/svg" xmlns:xlink="http://www.w3.org/1999/xlink"><g id="tight-bounds" transform="matrix(1,0,0,1,0.04749999999998522,0.04750000000001364)"><svg viewBox="0 0 333.90454557049503 333.90454557049503" height="333.90454557049503" width="333.90454557049503"><g><svg></svg></g><g><svg viewBox="0 0 333.90454557049503 333.90454557049503" height="333.90454557049503" width="333.90454557049503"><g><path d="M0 166.952c0-92.205 74.747-166.952 166.952-166.952 92.205 0 166.952 74.747 166.953 166.952 0 92.205-74.747 166.952-166.953 166.953-92.205 0-166.952-74.747-166.952-166.953zM166.952 325.534c87.582 0 158.582-70.999 158.582-158.582 0-87.582-70.999-158.582-158.582-158.581-87.582 0-158.582 70.999-158.581 158.581 0 87.582 70.999 158.582 158.581 158.582z" data-fill-palette-color="tertiary" fill="#35185a" stroke="transparent"></path><ellipse rx="160.27418187383762" ry="160.27418187383762" cx="166.95227278524752" cy="166.95227278524752" fill="#35185a" stroke="transparent" stroke-width="0" fill-opacity="1" data-fill-palette-color="tertiary"></ellipse></g><g transform="matrix(1,0,0,1,93.49313220860076,71.17305217166896)"><svg viewBox="0 0 146.91828115329352 191.55844122715712" height="191.55844122715712" width="146.91828115329352"><g><svg viewBox="0 0 146.91828115329352 191.55844122715712" height="191.55844122715712" width="146.91828115329352"><g><svg viewBox="0 0 213.1584412271571 277.9252412657936" height="191.55844122715712" width="146.91828115329352"><g transform="matrix(1,0,0,1,0,143.25691764938404)"><svg viewBox="0 0 213.1584412271571 134.66832361640957" height="134.66832361640957" width="213.1584412271571"><g id="textblocktransform"><svg viewBox="0 0 213.1584412271571 134.66832361640957" height="134.66832361640957" width="213.1584412271571" id="textblock"><g><svg viewBox="0 0 213.1584412271571 134.66832361640957" height="134.66832361640957" width="213.1584412271571"><g transform="matrix(1,0,0,1,0,0)"><svg width="213.1584412271571" viewBox="3.8499999046325684 -33.20000076293945 53.5 33.79999923706055" height="134.66832361640957" data-palette-color="#ffffff"><path d="M11.2 0L3.85 0 3.85-32.6 11.2-32.6 11.2-19.25 11.4-19.25 21.1-32.6 29.2-32.6 19.35-19.6 31 0 22.95 0 15-13.75 11.2-8.75 11.2 0ZM46.8 0.6L46.8 0.6Q43.7 0.6 40.95-0.48 38.2-1.55 36.12-3.65 34.05-5.75 32.85-8.88 31.65-12 31.65-16.1L31.65-16.1Q31.65-20.15 32.9-23.33 34.15-26.5 36.25-28.7 38.35-30.9 41.15-32.05 43.95-33.2 47.05-33.2L47.05-33.2Q50.2-33.2 52.7-31.93 55.2-30.65 56.85-28.95L56.85-28.95 52.95-24.25Q51.7-25.4 50.32-26.13 48.95-26.85 47.2-26.85L47.2-26.85Q45.55-26.85 44.07-26.13 42.6-25.4 41.52-24.05 40.45-22.7 39.82-20.75 39.2-18.8 39.2-16.35L39.2-16.35Q39.2-11.3 41.35-8.53 43.5-5.75 47.1-5.75L47.1-5.75Q49.1-5.75 50.67-6.63 52.25-7.5 53.45-8.8L53.45-8.8 57.35-4.2Q53.25 0.6 46.8 0.6Z" opacity="1" transform="matrix(1,0,0,1,0,0)" fill="#ffffff" class="wordmark-text-0" data-fill-palette-color="quaternary" id="text-0"></path></svg></g></svg></g></svg></g></svg></g><g transform="matrix(1,0,0,1,40.713262274387006,0)"><svg viewBox="0 0 131.7319166783831 111.46495848331652" height="111.46495848331652" width="131.7319166783831"><g><svg xmlns="http://www.w3.org/2000/svg" xmlns:xlink="http://www.w3.org/1999/xlink" version="1.1" x="0" y="0" viewBox="0 13.42199993133545 100 84.61499786376953" enable-background="new 0 0 100 100" xml:space="preserve" height="111.46495848331652" width="131.7319166783831" class="icon-icon-0" data-fill-palette-color="quaternary" id="icon-0"><g fill="#ffffff" data-fill-palette-color="quaternary"><path d="M0 13.422v84.615h100V13.422H0zM92.308 90.346H7.692V28.807h84.615V90.346z" fill="#ffffff" data-fill-palette-color="quaternary"></path><rect x="42.002" y="66.065" width="26.488" height="7.775" fill="#ffffff" data-fill-palette-color="quaternary"></rect><polygon points="15.521,66.064 41.988,55.549 41.988,55.527 42.002,55.533 42.002,47.181 41.988,47.187 41.988,47.165    15.521,36.65 15.515,45.014 31.487,51.357 15.515,57.701  " fill="#ffffff" data-fill-palette-color="quaternary"></polygon></g></svg></g></svg></g><g></g></svg></g></svg></g></svg></g></svg></g><defs></defs></svg><rect width="333.90454557049503" height="333.90454557049503" fill="none" stroke="none" visibility="hidden"></rect></g></svg></g></svg>